<svg enable-background="new 0 0 288 288" viewBox="0 0 288 288" xmlns="http://www.w3.org/2000/svg"><g fill="none" stroke="#fcd7d7" stroke-miterlimit="10" stroke-width="12"><path d="m204.5 248.5h-125.3c-19 0-34.5-15.5-34.5-34.5v-128.3c0-19 15.5-34.5 34.5-34.5h125.3c19 0 34.5 15.5 34.5 34.5v128.3c0 18.9-15.5 34.5-34.5 34.5z"/><circle cx="141.5" cy="147.9" r="47.8"/><circle cx="141.9" cy="148.2" r="22.8"/><path d="m181.4 118.4h57.6"/><path d="m44.7 118.4h59.7"/><path d="m62.7 58.5v44.9"/><path d="m76.7 58.5v44.9"/><path d="m91.2 58.5v44.9"/><path d="m208.8 103.8h-17.2c-4.8 0-8.7-3.9-8.7-8.7v-16c0-4.8 3.9-8.7 8.7-8.7h17.2c4.8 0 8.7 3.9 8.7 8.7v16.1c0 4.7-3.9 8.6-8.7 8.6z"/></g></svg>